<?xml version="1.0" encoding="utf-8"?><svg xmlns="http://www.w3.org/2000/svg" xmlns:xlink="http://www.w3.org/1999/xlink">

	<path stroke="rgb(197,190,164)" stroke-width="1" fill="rgb(236,226,187)" 
		d="M 7 3 L 53 3 L 47 46 L 30 52 L 13 46 Z"/>
	<path stroke="rgb(197,190,164)" stroke-width="1" fill="rgb(199,158,103)"
		d="M 13 46 L 30 52 L 47 46 L 46 52 L 30 58 L 14 52 Z"/>
	<g transform="translate(42.6,42) scale(0.42) rotate(180)">
	<path stroke="red" stroke-width="5" fill="none" 
		d="M 3 36 Q 18 27 30 12 Q 42 27 56 34 M 18 32 L 42 32 M 8 42 L 54 42 M 30 32 L 30 62 M 15 47 L 21 57 M 45 47 L 39 57 M 6 62 L 54 62"/>
	</g>

</svg>
