<?xml version="1.0" encoding="utf-8"?><svg xmlns="http://www.w3.org/2000/svg" xmlns:xlink="http://www.w3.org/1999/xlink">

	<path stroke="rgb(197,190,164)" stroke-width="1" fill="rgb(236,226,187)" 
		d="M 4 2 L 56 2 L 49 48 L 30 55 L 11 48 Z"/>
	<path stroke="rgb(197,190,164)" stroke-width="1" fill="rgb(199,158,103)"
		d="M 11 48 L 30 55 L 49 48 L 48 54 L 30 61 L 12 54 Z"/>
	<g transform="translate(43.5,42) scale(0.45) rotate(180)">
	<path stroke="black" stroke-width="5" fill="none" 
		d="M 8 17 L 39 17 Q 39 34 51 37 L 54 31 M 51 18 L 39 24 M 39 24 L 48 27 L 52 29 M 24 24 Q 16 28 4 29 M 16 28 Q 16 57 5 64"/>

	<path stroke="black" stroke-width="5" fill="none" 
		d="M 3 39 L 39 39 Q 40 58 51 62 L 55 56 M 49 41 L 40 48 M 40 48 Q 48 50 53 53 M 29 21 L 29 66"/>
	</g>

</svg>
