<?xml version="1.0" encoding="utf-8"?><svg xmlns="http://www.w3.org/2000/svg" xmlns:xlink="http://www.w3.org/1999/xlink">

	<path stroke="rgb(197,190,164)" stroke-width="1" fill="rgb(236,226,187)" 

		d="M 30 1 L 11 8 L 4 54 L 56 54 L 49 8 Z"/>
	<path stroke="rgb(197,190,164)" stroke-width="1" fill="rgb(199,158,103)"
		d="M 4 54 L 56 54 L 56 60 L 4 60 Z"/>
	<g transform="translate(16.5,15) scale(0.45)">
	<path stroke="black" stroke-width="5" fill="none" 
		d="M 4 35 Q 15 25 22 12 M 20 18 L 39 18 M 42 15 L 33 27 M 6 65 Q 14 61 15 51 L 15 29 L 48 29 L 48 63 L 40 63 M 15 39 L 48 39 M 31 29 L 31 51 M 15 51 L 48 51"/>
	</g>

</svg>
