<?xml version="1.0" encoding="utf-8"?><svg xmlns="http://www.w3.org/2000/svg" xmlns:xlink="http://www.w3.org/1999/xlink">

	<path stroke="rgb(197,190,164)" stroke-width="1" fill="rgb(236,226,187)" 
		d="M 4 2 L 56 2 L 49 48 L 30 55 L 11 48 Z"/>
	<path stroke="rgb(197,190,164)" stroke-width="1" fill="rgb(199,158,103)"
		d="M 11 48 L 30 55 L 49 48 L 48 54 L 30 61 L 12 54 Z"/>
	<g transform="translate(43.5,42) scale(0.45) rotate(180)">
	<path stroke="black" stroke-width="5" fill="none" 
		d="M 4 35 Q 15 25 22 12 M 20 18 L 39 18 M 42 15 L 33 27 M 6 65 Q 14 61 15 51 L 15 29 L 48 29 L 48 63 L 40 63 M 15 39 L 48 39 M 31 29 L 31 51 M 15 51 L 48 51"/>
	</g>

</svg>
