<?xml version="1.0" encoding="utf-8"?><svg xmlns="http://www.w3.org/2000/svg" xmlns:xlink="http://www.w3.org/1999/xlink" viewBox="0 0 600 640">
	<rect x="0" y="0" width="600" height="640" fill="rgb(222,193,91)"/>
<path stroke-width="5" stroke="rgb(212,188,86)" fill="none" d="M 50 0 V 640 M 100 0 V 640 M 150 0 V 640 M 200 0 V 640 M 250 0 V 640 M 300 0 V 640 M 350 0 V 640 M 400 0 V 640 M 450 0 V 640 M 500 0 V 640 M 550 0 V 640 "/>
<path stroke-width="5" stroke="rgb(217,188,86)" fill="none" d="M 30 0 V 640 M 80 0 V 640 M 130 0 V 640 M 180 0 V 640 M 230 0 V 640 M 280 0 V 640 M 330 0 V 640 M 380 0 V 640 M 430 0 V 640 M 480 0 V 640 M 530 0 V 640 M 580 0 V 640 "/>
<path stroke-width="5" stroke="rgb(217,188,86)" fill="none" d="M 20 0 V 640 M 70 0 V 640 M 120 0 V 640 M 170 0 V 640 M 220 0 V 640 M 270 0 V 640 M 320 0 V 640 M 370 0 V 640 M 420 0 V 640 M 470 0 V 640 M 520 0 V 640 M 570 0 V 640 "/>
<path stroke-width="5" stroke="rgb(217,188,86)" fill="none" d="M 10 0 V 640 M 60 0 V 640 M 110 0 V 640 M 160 0 V 640 M 210 0 V 640 M 260 0 V 640 M 310 0 V 640 M 360 0 V 640 M 410 0 V 640 M 460 0 V 640 M 510 0 V 640 M 560 0 V 640 "/>
</svg>