<?xml version="1.0" encoding="utf-8"?><svg xmlns="http://www.w3.org/2000/svg" xmlns:xlink="http://www.w3.org/1999/xlink">

	<path stroke="black" stroke-width="0" fill="black" 
		d="M 5 13 V 66 H 11 V 13 Z M 11 13 V 18 H 21 V 34 H 27 V 13 Z M 11 20 V 26 H 21 V 20 Z M 11 28 v 6 h 10 v -6 Z"/>

	<path stroke="black" stroke-width="0" fill="black" 
		d="M 32 13 V 34 h 6 V 13 Z M 38 13 v 5 H 50 V 59 H 44 L 44.5 66 H 52 Q 56 66 56 62 V 13 Z M 38 20 v 6 H 50 v -6 Z M 38 28 v 6 H 50 v -6 Z"/>

	<path stroke="black" stroke-width="0" fill="black" 
		d="M 15 36 v 5 H 45 v -5 Z M 13 45 v 5 H 46.5 v -5 Z M 22 41 V 52 Q 20 58 14 60 L 17 66 Q 26 61 28 53 V 41 Z M 33 41 V 65 H 39 V 41 Z"/>

	<path stroke="black" stroke-width="0" fill="black" 
		d="M 63 23 v 6 H 78 Q 75 54 63 61 L 67 66 Q 82 57 84 27 L 85 26 L 81 22 L 80 23 Z"/>

	<path stroke="black" stroke-width="0" fill="black" 
		d="M 70 12 L 63 49 L 69 51 L 76 16 L 78 15 Z M 69 48 L 82 59 L 85 53 L 70 43 Z"/>

	<path stroke="black" stroke-width="0" fill="black" 
		d="M 94 11 L 88 31 L 84 31 L 87 39 L 88 38 L 109 35 L 107 30 L 95 31 L 100 16 L 101 15 Z"/>

	<path stroke="black" stroke-width="0" fill="black" 
		d="M 101 24 Q 107 31 110.5 40 L 117 36 Q 112 27 107 21 Z"/>

	<path stroke="black" stroke-width="0" fill="black" 
		d="M 87 41 V 65 H 93 V 41 Z M 93 41 V 47 H 106 V 64 h 6 V 41 Z"/>

	<path stroke="black" stroke-width="0" fill="black" 
		d="M 93 57 v 6 H 106 v -6 Z"/>



</svg>
